<svg width="171" height="61" viewBox="0 0 171 61" fill="none" xmlns="http://www.w3.org/2000/svg">
<g clip-path="url(#clip0_162_2242)">
<path d="M1.65816 20.3926C1.97384 18.6327 3.44454 17.8615 4.65484 16.8523C8.90836 13.3085 13.8136 10.8366 18.6002 8.14C22.0527 6.19376 25.6234 4.67562 29.4751 3.93434C32.1523 3.41954 34.9445 2.91002 37.6238 3.13897C40.902 3.42022 44.1042 4.47104 47.0856 6.04969C49.6411 7.40314 52.3077 8.55146 54.8682 9.89384C61.0066 13.1157 67.6208 13.5543 74.308 12.9881C77.4371 12.7245 80.6779 12.7825 83.672 11.4188C87.2202 9.80243 90.8859 8.43328 94.3885 6.72441C100.155 3.90993 106.185 2.03205 112.542 1.29245C114.53 1.0603 116.6 1.17091 118.596 1.42054C124.399 2.14743 129.821 4.21762 134.954 6.88485C137.067 7.98295 138.721 9.97995 140.552 11.6009C141.186 12.1633 141.732 12.828 142.26 13.3857C146.372 13.0248 150.025 11.5578 153.691 10.313C157.517 9.01449 161.521 8.29151 165.209 6.53462C167.058 5.65413 169.635 8.01897 169.319 10.1677C169.244 10.6728 168.863 11.2995 168.433 11.5556C165.735 13.1679 162.965 14.6188 159.852 15.3193C157.628 15.8209 155.417 16.4068 153.231 17.0616C149.974 18.0359 146.865 19.5481 143.321 19.3926C142.716 19.3671 142.081 20.0568 141.489 20.3981C139.39 19.3436 137.533 18.099 136.177 16.267C134.672 14.2361 132.717 12.8491 130.439 11.8542C128.325 10.9301 126.237 9.93034 124.076 9.13519C122.916 8.70909 121.605 8.71006 120.394 8.39016C119.284 8.09746 118.243 7.53666 117.129 7.28221C116.458 7.12941 115.702 7.30726 114.988 7.38309C113.991 7.48887 113.001 7.74638 112.006 7.74378C110.099 7.73779 108.388 8.17931 106.608 8.94767C103.333 10.3641 99.8912 11.3909 96.5206 12.5859C95.9783 12.778 95.2298 12.8364 94.9475 13.2259C93.8953 14.683 92.1171 14.3191 90.7966 15.0678C89.4507 15.8312 88.0698 16.568 86.6295 17.1192C83.2983 18.3906 79.9532 19.7247 76.256 18.771C74.6284 19.5645 72.8562 19.1669 71.1598 19.3898C67.5761 19.8586 64.0386 19.3665 60.6023 18.54C56.4282 17.5374 52.3193 16.3909 48.4812 14.1717C45.8058 12.6229 43.1901 10.7106 40.0143 10.0679C38.9058 9.84308 37.8993 9.41275 36.6715 9.56899C35.1504 9.76379 33.4876 9.20841 32.0462 9.58768C28.3079 10.5692 24.5098 11.5683 21.0229 13.1785C18.6168 14.2889 16.2308 15.5516 13.8533 16.7786C11.559 17.9642 9.34347 19.3071 7.08237 20.5575C6.19881 21.0459 5.31149 21.5635 4.36718 21.8978C3.37232 22.25 2.36428 22.1519 1.61501 21.2383L1.47686 21.3449C2.30714 21.0326 2.12025 20.6669 1.53453 20.2785L1.65816 20.3926Z" fill="#FE4344"/>
<path d="M170.398 22.2441C166.37 24.4646 162.724 26.7433 158.843 28.5162C156.648 29.5187 154.412 30.4539 152.226 31.4997C151.221 31.9826 149.994 32.0123 148.861 32.2204C147.3 32.506 145.636 32.5179 144.188 33.0867C141.005 34.3378 137.971 33.3468 134.916 32.7819C133.704 32.5591 132.683 31.3482 131.268 32.0836C129.748 31.2748 127.974 30.7347 126.762 29.5965C124.643 27.603 121.671 27.6523 119.454 26.0454C117.163 25.9767 114.83 25.5963 112.59 25.9028C107.194 26.6434 101.942 27.9986 96.8292 29.9796C92.4317 31.6836 88.089 33.6162 83.3777 34.4221C82.2545 34.6148 81.1273 34.9994 80.1051 35.5042C78.8771 36.1102 77.6725 36.2991 76.3325 36.0931C75.4841 35.9638 74.4789 35.7528 73.7637 36.0704C71.1289 37.2381 68.4437 36.7421 65.7388 36.7742C64.4 36.7897 63.2509 36.2692 61.9965 36.1191C60.3103 35.9198 58.6428 35.4117 56.905 35.2552C55.9619 35.1691 55.04 34.173 54.1535 34.2319C51.8205 34.3872 50.0532 33.1987 48.1647 32.2375C46.2496 31.2637 44.3797 30.1903 42.4268 29.3007C39.7964 28.102 37.1161 27.0073 34.4299 25.9417C33.9416 25.7475 33.3116 25.929 32.75 25.9032C28.8482 25.7155 25.019 26.3063 21.1962 26.9608C18.5991 27.4047 18.6014 27.4093 15.6974 25.4725C17.1538 23.5321 19.2937 22.4569 21.3548 21.6246C25.8247 19.8221 30.5777 19.2374 35.3547 20.1072C37.3116 20.4636 39.2107 21.2987 41.0471 22.1151C44.0841 23.468 47.0098 25.0736 50.0519 26.4131C55.6797 28.8906 61.6577 30.0888 67.7482 30.4107C70.8892 30.5771 74.1329 30.2285 77.2266 29.6039C81.8943 28.6627 86.4504 27.2981 90.9391 25.5779C96.8543 23.3082 102.806 21.0786 109.103 19.8639C112.758 19.1588 116.3 19.6081 119.893 19.7298C120.575 19.7519 121.268 20.1499 121.909 20.4731C124.617 21.8426 127.269 23.3315 130.014 24.6236C134.727 26.8444 139.71 27.5066 144.837 26.6112C150.461 25.6279 155.622 23.335 160.517 20.4919C162.821 19.1531 165.269 18.3927 167.793 17.7669C168.989 17.469 169.644 18.2201 169.474 19.5278C169.368 20.3593 169.621 21.2434 170.398 22.2441Z" fill="#FE4344"/>
<path d="M168.06 40.4121C167.425 42.0511 166.47 42.9071 165.27 43.485C163.01 44.5727 160.851 45.8571 158.456 46.6854C156.841 47.2444 155.396 48.3446 153.762 48.7873C151.013 49.5317 148.177 49.96 145.371 50.4825C144.974 50.557 144.44 50.2206 144.13 50.3827C141.21 51.8991 138.496 50.8593 135.767 49.8211C135.499 49.7184 135.085 49.7266 134.962 49.5401C132.855 46.2882 128.615 47.179 125.98 44.9042C125.386 44.391 124.352 44.1583 123.533 44.1795C119.507 44.2822 115.45 43.5403 111.466 44.3185C107.803 45.0322 104.196 46.0447 100.584 47.0004C100.08 47.1333 99.6866 47.6848 99.2387 48.0373C98.8987 48.3042 98.5781 48.7416 98.2025 48.799C93.4494 49.5307 89.9216 53.3631 85.1186 53.9501C84.8482 53.9829 84.5734 54.1579 84.3486 54.3285C81.681 56.3604 78.3594 56.1924 75.3237 56.9327C74.1831 57.2104 72.8547 56.6026 71.6187 56.6431C69.6131 56.7072 67.7431 55.5864 65.7122 56.0562C63.9146 55.0833 61.8551 54.9415 59.9784 54.2633C58.4042 53.694 57.4672 51.7975 55.4806 51.9394C51.8848 49.8082 47.8968 48.4931 44.2148 46.5659C42.6033 45.7236 41.304 44.3824 39.5231 43.6363C36.813 42.4996 34.1629 42.2742 31.5343 43.3563C29.5899 44.1556 27.5567 43.9856 25.595 44.4247C25.1473 44.5263 24.5348 44.1298 24.0663 43.8484C23.5274 43.5231 23.3168 42.9868 23.6209 42.3678C23.7456 42.1113 23.8937 41.8401 24.0991 41.6506C27.6814 38.3518 31.975 36.747 36.7767 36.9285C39.3445 37.0257 41.9094 37.8304 44.1857 39.11C48.7272 41.6665 53.2724 44.1892 58.1753 46.0096C59.2533 46.4093 60.2209 47.0933 61.2648 47.5932C66.4799 50.0992 71.9071 51.2836 77.677 50.065C78.8 49.8272 79.9287 49.5149 80.9822 49.0659C86.4205 46.7495 91.7693 44.212 97.27 42.0612C106.278 38.5363 115.573 36.6587 125.305 38.2256C126.155 38.3617 127.03 38.5442 127.805 38.9006C130.825 40.2889 133.841 41.6951 136.791 43.2203C138.125 43.9098 139.458 44.3167 140.939 44.2964C146.044 44.2296 151.02 43.5579 155.632 41.1675C157.818 40.0357 160.001 38.9016 162.197 37.7929C163.481 37.1442 164.759 36.3958 166.469 36.9081C166.953 37.9768 167.477 39.1332 168.06 40.4121Z" fill="#FE4344"/>
</g>
<defs>
<clipPath id="clip0_162_2242">
<rect width="171" height="61" fill="white"/>
</clipPath>
</defs>
</svg>
